<?xml version="1.0" encoding="utf-8"?>
<svg version="1.1" xmlns:xlink="http://www.w3.org/1999/xlink" width="22px" height="37px" xmlns="http://www.w3.org/2000/svg">
  <g transform="matrix(1 0 0 1 -1161 -356 )">
    <path d="M 21.6219931271478 2.22444889779559  C 21.8739977090493 2.47160988643954  22 2.75584502338009  22 3.07715430861724  C 22 3.39846359385437  21.8739977090493 3.68269873079492  21.6219931271478 3.92985971943888  L 6.76632302405498 18.5  L 21.6219931271478 33.0701402805611  C 21.8739977090493 33.3173012692051  22 33.6015364061456  22 33.9228456913828  C 22 34.2441549766199  21.8739977090493 34.5283901135604  21.6219931271478 34.7755511022044  L 19.7319587628866 36.6292585170341  C 19.4799541809851 36.876419505678  19.1901489117984 37  18.8625429553265 37  C 18.5349369988545 37  18.2451317296678 36.876419505678  17.9931271477663 36.6292585170341  L 0.378006872852234 19.3527054108216  C 0.126002290950745 19.1055444221777  0 18.8213092852371  0 18.5  C 0 18.1786907147629  0.126002290950745 17.8944555778223  0.378006872852234 17.6472945891784  L 17.9931271477663 0.370741482965932  C 18.2451317296678 0.123580494321976  18.5349369988545 0  18.8625429553265 0  C 19.1901489117984 0  19.4799541809851 0.123580494321976  19.7319587628866 0.370741482965932  L 21.6219931271478 2.22444889779559  Z " fill-rule="nonzero" fill="#ffffff" stroke="none" transform="matrix(1 0 0 1 1161 356 )" />
  </g>
</svg>