<?xml version="1.0" encoding="utf-8"?>
<svg version="1.1" xmlns:xlink="http://www.w3.org/1999/xlink" width="13px" height="13px" xmlns="http://www.w3.org/2000/svg">
  <g transform="matrix(1 0 0 1 -1264 -3193 )">
    <path d="M 1270.5 3193  C 1274.14 3193  1277 3195.86  1277 3199.5  C 1277 3203.14  1274.14 3206  1270.5 3206  C 1266.86 3206  1264 3203.14  1264 3199.5  C 1264 3195.86  1266.86 3193  1270.5 3193  Z " fill-rule="nonzero" fill="#ffffff" stroke="none" />
    <path d="M 1270.5 3193.5  C 1273.86 3193.5  1276.5 3196.14  1276.5 3199.5  C 1276.5 3202.86  1273.86 3205.5  1270.5 3205.5  C 1267.14 3205.5  1264.5 3202.86  1264.5 3199.5  C 1264.5 3196.14  1267.14 3193.5  1270.5 3193.5  Z " stroke-width="1" stroke="#797979" fill="none" />
  </g>
</svg>