<?xml version="1.0" encoding="utf-8"?>
<svg version="1.1" xmlns:xlink="http://www.w3.org/1999/xlink" width="375px" height="225px" xmlns="http://www.w3.org/2000/svg">
  <g transform="matrix(1 0 0 1 -614 -1503 )">
    <path d="M 71.875 150  C 73.9583333333333 150  75 151.041666666667  75 153.125  L 75 171.875  C 75 173.958333333333  73.9583333333333 175  71.875 175  L 53.125 175  C 51.0416666666667 175  50 173.958333333333  50 171.875  L 50 153.125  C 50 151.041666666667  51.0416666666667 150  53.125 150  L 71.875 150  Z M 96.875 100  C 98.9583333333333 100  100 101.041666666667  100 103.125  L 100 121.875  C 100 123.958333333333  98.9583333333333 125  96.875 125  L 53.125 125  C 51.0416666666667 125  50 123.958333333333  50 121.875  L 50 103.125  C 50 101.041666666667  51.0416666666667 100  53.125 100  L 96.875 100  Z M 71.875 50  C 73.9583333333333 50  75 51.0416666666666  75 53.125  L 75 71.875  C 75 73.9583333333333  73.9583333333333 75  71.875 75  L 53.125 75  C 51.0416666666667 75  50 73.9583333333333  50 71.875  L 50 53.125  C 50 51.0416666666666  51.0416666666667 50  53.125 50  L 71.875 50  Z M 271.875 150  C 273.958333333333 150  275 151.041666666667  275 153.125  L 275 171.875  C 275 173.958333333333  273.958333333333 175  271.875 175  L 103.125 175  C 101.041666666667 175  100 173.958333333333  100 171.875  L 100 153.125  C 100 151.041666666667  101.041666666667 150  103.125 150  L 271.875 150  Z M 146.875 100  C 148.958333333333 100  150 101.041666666667  150 103.125  L 150 121.875  C 150 123.958333333333  148.958333333333 125  146.875 125  L 128.125 125  C 126.041666666667 125  125 123.958333333333  125 121.875  L 125 103.125  C 125 101.041666666667  126.041666666667 100  128.125 100  L 146.875 100  Z M 121.875 50  C 123.958333333333 50  125 51.0416666666666  125 53.125  L 125 71.875  C 125 73.9583333333333  123.958333333333 75  121.875 75  L 103.125 75  C 101.041666666667 75  100 73.9583333333333  100 71.875  L 100 53.125  C 100 51.0416666666666  101.041666666667 50  103.125 50  L 121.875 50  Z M 196.875 100  C 198.958333333333 100  200 101.041666666667  200 103.125  L 200 121.875  C 200 123.958333333333  198.958333333333 125  196.875 125  L 178.125 125  C 176.041666666667 125  175 123.958333333333  175 121.875  L 175 103.125  C 175 101.041666666667  176.041666666667 100  178.125 100  L 196.875 100  Z M 171.875 50  C 173.958333333333 50  175 51.0416666666666  175 53.125  L 175 71.875  C 175 73.9583333333333  173.958333333333 75  171.875 75  L 153.125 75  C 151.041666666667 75  150 73.9583333333333  150 71.875  L 150 53.125  C 150 51.0416666666666  151.041666666667 50  153.125 50  L 171.875 50  Z M 246.875 100  C 248.958333333333 100  250 101.041666666667  250 103.125  L 250 121.875  C 250 123.958333333333  248.958333333333 125  246.875 125  L 228.125 125  C 226.041666666667 125  225 123.958333333333  225 121.875  L 225 103.125  C 225 101.041666666667  226.041666666667 100  228.125 100  L 246.875 100  Z M 321.875 150  C 323.958333333333 150  325 151.041666666667  325 153.125  L 325 171.875  C 325 173.958333333333  323.958333333333 175  321.875 175  L 303.125 175  C 301.041666666667 175  300 173.958333333333  300 171.875  L 300 153.125  C 300 151.041666666667  301.041666666667 150  303.125 150  L 321.875 150  Z M 221.875 50  C 223.958333333333 50  225 51.0416666666666  225 53.125  L 225 71.875  C 225 73.9583333333333  223.958333333333 75  221.875 75  L 203.125 75  C 201.041666666667 75  200 73.9583333333333  200 71.875  L 200 53.125  C 200 51.0416666666666  201.041666666667 50  203.125 50  L 221.875 50  Z M 271.875 50  C 273.958333333333 50  275 51.0416666666666  275 53.125  L 275 71.875  C 275 73.9583333333333  273.958333333333 75  271.875 75  L 253.125 75  C 251.041666666667 75  250 73.9583333333333  250 71.875  L 250 53.125  C 250 51.0416666666666  251.041666666667 50  253.125 50  L 271.875 50  Z M 321.875 50  C 323.958333333333 50  325 51.0416666666666  325 53.125  L 325 121.875  C 325 123.958333333333  323.958333333333 125  321.875 125  L 278.125 125  C 276.041666666667 125  275 123.958333333333  275 121.875  L 275 103.125  C 275 101.041666666667  276.041666666667 100  278.125 100  L 300 100  L 300 53.125  C 300 51.0416666666666  301.041666666667 50  303.125 50  L 321.875 50  Z M 25 200  L 350 200  L 350 25  L 25 25  L 25 200  Z M 367.67578125 7.32421875000001  C 372.55859375 12.20703125  375 18.0989583333333  375 25  L 375 200  C 375 206.901041666667  372.55859375 212.79296875  367.67578125 217.67578125  C 362.79296875 222.55859375  356.901041666667 225  350 225  L 25 225  C 18.0989583333333 225  12.20703125 222.55859375  7.32421875 217.67578125  C 2.44140625 212.79296875  0 206.901041666667  0 200  L 0 25  C 0 18.0989583333333  2.44140625 12.20703125  7.32421875 7.32421875000001  C 12.20703125 2.44140624999999  18.0989583333333 0  25 0  L 350 0  C 356.901041666667 0  362.79296875 2.44140624999999  367.67578125 7.32421875000001  Z " fill-rule="nonzero" fill="#000000" stroke="none" fill-opacity="0.517647058823529" transform="matrix(1 0 0 1 614 1503 )" />
  </g>
</svg>