<?xml version="1.0" encoding="utf-8"?>
<svg version="1.1" xmlns:xlink="http://www.w3.org/1999/xlink" width="17px" height="14px" xmlns="http://www.w3.org/2000/svg">
  <defs>
    <mask fill="white" id="clip11">
      <path d="M 6.69817708333333 6.36478365384615  C 7.19696180555556 5.89082532051282  7.79756944444445 5.65384615384615  8.5 5.65384615384615  C 9.20243055555556 5.65384615384615  9.80303819444445 5.89082532051282  10.3018229166667 6.36478365384615  C 10.8006076388889 6.83874198717949  11.05 7.40945512820513  11.05 8.07692307692308  C 11.05 8.74439102564103  10.8006076388889 9.31510416666667  10.3018229166667 9.7890625  C 9.80303819444445 10.2630208333333  9.20243055555556 10.5  8.5 10.5  C 7.79756944444445 10.5  7.19696180555556 10.2630208333333  6.69817708333333 9.7890625  C 6.19939236111111 9.31510416666667  5.95 8.74439102564103  5.95 8.07692307692308  C 5.95 7.40945512820513  6.19939236111111 6.83874198717949  6.69817708333333 6.36478365384615  Z M 12.75 2.15384615384615  L 14.7333333333333 2.15384615384615  C 15.3590277777778 2.15384615384615  15.8932291666667 2.36418269230769  16.3359375 2.78485576923077  C 16.7786458333333 3.20552884615385  17 3.71314102564102  17 4.30769230769231  L 17 11.8461538461538  C 17 12.4407051282051  16.7786458333333 12.9483173076923  16.3359375 13.3689903846154  C 15.8932291666667 13.7896634615385  15.3590277777778 14  14.7333333333333 14  L 2.26666666666667 14  C 1.64097222222222 14  1.10677083333333 13.7896634615385  0.6640625 13.3689903846154  C 0.221354166666667 12.9483173076923  0 12.4407051282051  0 11.8461538461538  L 0 4.30769230769231  C 0 3.71314102564102  0.221354166666667 3.20552884615385  0.6640625 2.78485576923077  C 1.10677083333333 2.36418269230769  1.64097222222222 2.15384615384615  2.26666666666667 2.15384615384615  L 4.25 2.15384615384615  L 4.7015625 1.00961538461538  C 4.81371527777778 0.734775641025641  5.01883680555556 0.497796474358974  5.31692708333333 0.298677884615384  C 5.61501736111111 0.0995592948717963  5.92048611111111 0  6.23333333333333 0  L 10.7666666666667 0  C 11.0795138888889 0  11.3849826388889 0.0995592948717963  11.6830729166667 0.298677884615384  C 11.9811631944444 0.497796474358974  12.1862847222222 0.734775641025641  12.2984375 1.00961538461538  L 12.75 2.15384615384615  Z M 5.69765625 10.7397836538462  C 6.47387152777778 11.4773637820513  7.40798611111111 11.8461538461538  8.5 11.8461538461538  C 9.59201388888889 11.8461538461538  10.5261284722222 11.4773637820513  11.30234375 10.7397836538462  C 12.0785590277778 10.002203525641  12.4666666666667 9.11458333333333  12.4666666666667 8.07692307692308  C 12.4666666666667 7.03926282051282  12.0785590277778 6.15164262820513  11.30234375 5.4140625  C 10.5261284722222 4.67648237179487  9.59201388888889 4.30769230769231  8.5 4.30769230769231  C 7.40798611111111 4.30769230769231  6.47387152777778 4.67648237179487  5.69765625 5.4140625  C 4.92144097222222 6.15164262820513  4.53333333333333 7.03926282051282  4.53333333333333 8.07692307692308  C 4.53333333333333 9.11458333333333  4.92144097222222 10.002203525641  5.69765625 10.7397836538462  Z " fill-rule="evenodd" />
    </mask>
  </defs>
  <g transform="matrix(1 0 0 1 -732 -980 )">
    <path d="M 6.69817708333333 6.36478365384615  C 7.19696180555556 5.89082532051282  7.79756944444445 5.65384615384615  8.5 5.65384615384615  C 9.20243055555556 5.65384615384615  9.80303819444445 5.89082532051282  10.3018229166667 6.36478365384615  C 10.8006076388889 6.83874198717949  11.05 7.40945512820513  11.05 8.07692307692308  C 11.05 8.74439102564103  10.8006076388889 9.31510416666667  10.3018229166667 9.7890625  C 9.80303819444445 10.2630208333333  9.20243055555556 10.5  8.5 10.5  C 7.79756944444445 10.5  7.19696180555556 10.2630208333333  6.69817708333333 9.7890625  C 6.19939236111111 9.31510416666667  5.95 8.74439102564103  5.95 8.07692307692308  C 5.95 7.40945512820513  6.19939236111111 6.83874198717949  6.69817708333333 6.36478365384615  Z M 12.75 2.15384615384615  L 14.7333333333333 2.15384615384615  C 15.3590277777778 2.15384615384615  15.8932291666667 2.36418269230769  16.3359375 2.78485576923077  C 16.7786458333333 3.20552884615385  17 3.71314102564102  17 4.30769230769231  L 17 11.8461538461538  C 17 12.4407051282051  16.7786458333333 12.9483173076923  16.3359375 13.3689903846154  C 15.8932291666667 13.7896634615385  15.3590277777778 14  14.7333333333333 14  L 2.26666666666667 14  C 1.64097222222222 14  1.10677083333333 13.7896634615385  0.6640625 13.3689903846154  C 0.221354166666667 12.9483173076923  0 12.4407051282051  0 11.8461538461538  L 0 4.30769230769231  C 0 3.71314102564102  0.221354166666667 3.20552884615385  0.6640625 2.78485576923077  C 1.10677083333333 2.36418269230769  1.64097222222222 2.15384615384615  2.26666666666667 2.15384615384615  L 4.25 2.15384615384615  L 4.7015625 1.00961538461538  C 4.81371527777778 0.734775641025641  5.01883680555556 0.497796474358974  5.31692708333333 0.298677884615384  C 5.61501736111111 0.0995592948717963  5.92048611111111 0  6.23333333333333 0  L 10.7666666666667 0  C 11.0795138888889 0  11.3849826388889 0.0995592948717963  11.6830729166667 0.298677884615384  C 11.9811631944444 0.497796474358974  12.1862847222222 0.734775641025641  12.2984375 1.00961538461538  L 12.75 2.15384615384615  Z M 5.69765625 10.7397836538462  C 6.47387152777778 11.4773637820513  7.40798611111111 11.8461538461538  8.5 11.8461538461538  C 9.59201388888889 11.8461538461538  10.5261284722222 11.4773637820513  11.30234375 10.7397836538462  C 12.0785590277778 10.002203525641  12.4666666666667 9.11458333333333  12.4666666666667 8.07692307692308  C 12.4666666666667 7.03926282051282  12.0785590277778 6.15164262820513  11.30234375 5.4140625  C 10.5261284722222 4.67648237179487  9.59201388888889 4.30769230769231  8.5 4.30769230769231  C 7.40798611111111 4.30769230769231  6.47387152777778 4.67648237179487  5.69765625 5.4140625  C 4.92144097222222 6.15164262820513  4.53333333333333 7.03926282051282  4.53333333333333 8.07692307692308  C 4.53333333333333 9.11458333333333  4.92144097222222 10.002203525641  5.69765625 10.7397836538462  Z " fill-rule="nonzero" fill="#ffffff" stroke="none" transform="matrix(1 0 0 1 732 980 )" />
    <path d="M 6.69817708333333 6.36478365384615  C 7.19696180555556 5.89082532051282  7.79756944444445 5.65384615384615  8.5 5.65384615384615  C 9.20243055555556 5.65384615384615  9.80303819444445 5.89082532051282  10.3018229166667 6.36478365384615  C 10.8006076388889 6.83874198717949  11.05 7.40945512820513  11.05 8.07692307692308  C 11.05 8.74439102564103  10.8006076388889 9.31510416666667  10.3018229166667 9.7890625  C 9.80303819444445 10.2630208333333  9.20243055555556 10.5  8.5 10.5  C 7.79756944444445 10.5  7.19696180555556 10.2630208333333  6.69817708333333 9.7890625  C 6.19939236111111 9.31510416666667  5.95 8.74439102564103  5.95 8.07692307692308  C 5.95 7.40945512820513  6.19939236111111 6.83874198717949  6.69817708333333 6.36478365384615  Z " stroke-width="2" stroke="#333333" fill="none" transform="matrix(1 0 0 1 732 980 )" mask="url(#clip11)" />
    <path d="M 12.75 2.15384615384615  L 14.7333333333333 2.15384615384615  C 15.3590277777778 2.15384615384615  15.8932291666667 2.36418269230769  16.3359375 2.78485576923077  C 16.7786458333333 3.20552884615385  17 3.71314102564102  17 4.30769230769231  L 17 11.8461538461538  C 17 12.4407051282051  16.7786458333333 12.9483173076923  16.3359375 13.3689903846154  C 15.8932291666667 13.7896634615385  15.3590277777778 14  14.7333333333333 14  L 2.26666666666667 14  C 1.64097222222222 14  1.10677083333333 13.7896634615385  0.6640625 13.3689903846154  C 0.221354166666667 12.9483173076923  0 12.4407051282051  0 11.8461538461538  L 0 4.30769230769231  C 0 3.71314102564102  0.221354166666667 3.20552884615385  0.6640625 2.78485576923077  C 1.10677083333333 2.36418269230769  1.64097222222222 2.15384615384615  2.26666666666667 2.15384615384615  L 4.25 2.15384615384615  L 4.7015625 1.00961538461538  C 4.81371527777778 0.734775641025641  5.01883680555556 0.497796474358974  5.31692708333333 0.298677884615384  C 5.61501736111111 0.0995592948717963  5.92048611111111 0  6.23333333333333 0  L 10.7666666666667 0  C 11.0795138888889 0  11.3849826388889 0.0995592948717963  11.6830729166667 0.298677884615384  C 11.9811631944444 0.497796474358974  12.1862847222222 0.734775641025641  12.2984375 1.00961538461538  L 12.75 2.15384615384615  Z " stroke-width="2" stroke="#333333" fill="none" transform="matrix(1 0 0 1 732 980 )" mask="url(#clip11)" />
    <path d="M 5.69765625 10.7397836538462  C 6.47387152777778 11.4773637820513  7.40798611111111 11.8461538461538  8.5 11.8461538461538  C 9.59201388888889 11.8461538461538  10.5261284722222 11.4773637820513  11.30234375 10.7397836538462  C 12.0785590277778 10.002203525641  12.4666666666667 9.11458333333333  12.4666666666667 8.07692307692308  C 12.4666666666667 7.03926282051282  12.0785590277778 6.15164262820513  11.30234375 5.4140625  C 10.5261284722222 4.67648237179487  9.59201388888889 4.30769230769231  8.5 4.30769230769231  C 7.40798611111111 4.30769230769231  6.47387152777778 4.67648237179487  5.69765625 5.4140625  C 4.92144097222222 6.15164262820513  4.53333333333333 7.03926282051282  4.53333333333333 8.07692307692308  C 4.53333333333333 9.11458333333333  4.92144097222222 10.002203525641  5.69765625 10.7397836538462  Z " stroke-width="2" stroke="#333333" fill="none" transform="matrix(1 0 0 1 732 980 )" mask="url(#clip11)" />
  </g>
</svg>