<?xml version="1.0" encoding="utf-8"?>
<svg version="1.1" xmlns:xlink="http://www.w3.org/1999/xlink" width="12px" height="12px" xmlns="http://www.w3.org/2000/svg">
  <g transform="matrix(1 0 0 1 -715 -982 )">
    <path d="M 721 982  C 724.36 982  727 984.64  727 988  C 727 991.36  724.36 994  721 994  C 717.64 994  715 991.36  715 988  C 715 984.64  717.64 982  721 982  Z " fill-rule="nonzero" fill="#ffffff" stroke="none" />
    <path d="M 721 982.5  C 724.08 982.5  726.5 984.92  726.5 988  C 726.5 991.08  724.08 993.5  721 993.5  C 717.92 993.5  715.5 991.08  715.5 988  C 715.5 984.92  717.92 982.5  721 982.5  Z " stroke-width="1" stroke="#797979" fill="none" />
  </g>
</svg>