<?xml version="1.0" encoding="utf-8"?>
<svg version="1.1" xmlns:xlink="http://www.w3.org/1999/xlink" width="39px" height="30px" xmlns="http://www.w3.org/2000/svg">
  <g transform="matrix(1 0 0 1 -2013 -1440 )">
    <path d="M 18.1883408071749 22.5  L 19.4125560538117 22.5  L 21.9484304932735 20.0284090909091  L 18.6255605381166 16.7897727272727  L 16.0896860986547 19.2613636363636  L 16.0896860986547 20.4545454545455  L 18.1883408071749 20.4545454545455  L 18.1883408071749 22.5  Z M 29.0095291479821 7.86221590909091  C 29.2572869955157 7.62073863636363  29.2645739910314 7.38636363636363  29.0313901345292 7.15909090909091  C 28.7982062780269 6.93181818181818  28.557735426009 6.93892045454545  28.3099775784753 7.18039772727273  L 20.6586322869955 14.6377840909091  C 20.4108744394619 14.8792613636364  20.4035874439462 15.1136363636364  20.6367713004484 15.3409090909091  C 20.8699551569507 15.5681818181818  21.1104260089686 15.5610795454545  21.3581838565022 15.3196022727273  L 29.0095291479821 7.86221590909091  Z M 30.3430493273543 19.1974431818182  C 30.6345291479821 19.3110795454545  30.780269058296 19.5170454545455  30.780269058296 19.8153409090909  L 30.780269058296 23.8636363636364  C 30.780269058296 25.5539772727273  30.1645179372197 26.9992897727273  28.9330156950673 28.1995738636364  C 27.7015134529148 29.3998579545455  26.2186098654709 30  24.4843049327354 30  L 6.29596412556054 30  C 4.56165919282511 30  3.07875560538117 29.3998579545455  1.8472533632287 28.1995738636364  C 0.615751121076233 26.9992897727273  0 25.5539772727273  0 23.8636363636364  L 0 6.13636363636364  C 0 4.44602272727272  0.615751121076233 3.00071022727273  1.8472533632287 1.80042613636364  C 3.07875560538117 0.600142045454543  4.56165919282511 0  6.29596412556054 0  L 24.4843049327354 0  C 25.402466367713 0  26.2550448430493 0.177556818181817  27.0420403587444 0.532670454545453  C 27.2606502242152 0.632102272727271  27.3918161434978 0.795454545454545  27.4355381165919 1.02272727272727  C 27.4792600896861 1.26420454545454  27.4136771300448 1.47017045454545  27.2387892376682 1.640625  L 26.167600896861 2.68465909090909  C 25.9635650224215 2.88352272727273  25.7303811659193 2.94034090909091  25.4680493273543 2.85511363636364  C 25.1328475336323 2.76988636363636  24.804932735426 2.72727272727273  24.4843049327354 3  L 6.29596412556054 3  C 5.33408071748879 2.72727272727273  4.51065022421525 3.06107954545454  3.82567264573991 3.72869318181818  C 3.14069506726457 4.39630681818182  2.79820627802691 5.19886363636364  3 6.13636363636364  L 3 23.8636363636364  C 2.79820627802691 24.8011363636364  3.14069506726457 25.6036931818182  3.82567264573991 26.2713068181818  C 4.51065022421525 26.9389204545455  5.33408071748879 27.2727272727273  6.29596412556054 27  L 24.4843049327354 27  C 25.4461883408072 27.2727272727273  26.2696188340807 26.9389204545455  26.9545964125561 26.2713068181818  C 27.6395739910314 25.6036931818182  27.9820627802691 24.8011363636364  27.9820627802691 23.8636363636364  L 27.9820627802691 21.1789772727273  C 27.9820627802691 20.9943181818182  28.0476457399103 20.8380681818182  28.1788116591928 20.7102272727273  L 29.5779147982063 19.3465909090909  C 29.7965246636771 19.1335227272727  30.0515695067265 19.0838068181818  30.3430493273543 19.1974431818182  Z M 13.9910313901345 18.4090909090909  L 28.6816143497758 4.09090909090909  L 34.9775784753363 10.2272727272727  L 20.2869955156951 24.5454545454545  L 13.9910313901345 24.5454545454545  L 13.9910313901345 18.4090909090909  Z M 39 5.45454545454545  C 39 6.02272727272727  38.7959641255605 6.50568181818182  38.3878923766816 6.90340909090909  L 36.3766816143498 8.86363636363636  L 30.0807174887892 2.72727272727273  L 32.0919282511211 0.767045454545453  C 32.5 0.369318181818179  32.9955156950673 0.170454545454547  33.5784753363229 0.170454545454547  C 34.1614349775785 0.170454545454547  34.6569506726457 0.369318181818179  35.0650224215247 0.767045454545453  L 38.3878923766816 4.00568181818182  C 38.7959641255605 4.40340909090909  39 4.88636363636363  39 5.45454545454545  Z " fill-rule="nonzero" fill="#ffffff" stroke="none" transform="matrix(1 0 0 1 2013 1440 )" />
  </g>
</svg>