<?xml version="1.0" encoding="utf-8"?>
<svg version="1.1" xmlns:xlink="http://www.w3.org/1999/xlink" width="80px" height="182px" xmlns="http://www.w3.org/2000/svg">
  <g transform="matrix(1 0 0 1 -1899 -1065 )">
    <path d="M 76.5714285714286 134  C 78.025974025974 134.814814814815  79.030303030303 135.481867283951  79.5844155844156 136.815972222222  C 80.1385281385281 138.150077160494  79.965367965368 139.378858024691  79.0649350649351 140.502314814815  L 42.7012987012987 180.946759259259  C 42.008658008658 181.648919753086  41.2121212121212 182  40.3116883116883 182  C 39.3419913419913 182  38.5108225108225 181.648919753086  37.8181818181818 180.946759259259  L 0.935064935064935 140.502314814815  C 0.0346320346320346 139.378858024691  -0.138528138528139 138.150077160494  0.415584415584416 136.815972222222  C 1.03896103896104 135.481867283951  2.04329004329004 134.814814814815  3.42857142857143 134  L 27 134  L 27 3.37037037037036  C 26.7012987012987 2.38734567901233  27.012987012987 1.57986111111112  27.6363636363636 0.947916666666673  C 28.2597402597403 0.315972222222231  29.0562770562771 0  30.025974025974 0  L 49.974025974026 0  C 50.9437229437229 0  51.7402597402597 0.315972222222231  52.3636363636364 0.947916666666673  C 52.987012987013 1.57986111111112  53.2987012987013 2.38734567901233  53 3.37037037037036  L 53 134  L 76.5714285714286 134  Z " fill-rule="nonzero" fill="#000000" stroke="none" transform="matrix(1 0 0 1 1899 1065 )" />
  </g>
</svg>