<?xml version="1.0" encoding="utf-8"?>
<svg version="1.1" xmlns:xlink="http://www.w3.org/1999/xlink" width="22px" height="31px" xmlns="http://www.w3.org/2000/svg">
  <g transform="matrix(1 0 0 1 -1762 -2155 )">
    <path d="M 22 4.42307692307692  C 22 4.75641025641025  21.8655083655084 5.04487179487179  21.5965250965251 5.28846153846154  L 10.3204633204633 15.5  L 21.5965250965251 25.7115384615385  C 21.8655083655084 25.9551282051282  22 26.2435897435897  22 26.5769230769231  C 22 26.9102564102564  21.8655083655084 27.1987179487179  21.5965250965251 27.4423076923077  L 18.0714285714286 30.6346153846154  C 17.8024453024453 30.8782051282051  17.4839124839125 31  17.1158301158301 31  C 16.7477477477477 31  16.4292149292149 30.8782051282051  16.1602316602317 30.6346153846154  L 0.403474903474904 16.3653846153846  C 0.134491634491635 16.1217948717949  0 15.8333333333333  0 15.5  C 0 15.1666666666667  0.134491634491635 14.8782051282051  0.403474903474904 14.6346153846154  L 16.1602316602317 0.365384615384615  C 16.4292149292149 0.12179487179487  16.7477477477477 0  17.1158301158301 0  C 17.4839124839125 0  17.8024453024453 0.12179487179487  18.0714285714286 0.365384615384615  L 21.5965250965251 3.55769230769231  C 21.8655083655084 3.80128205128205  22 4.08974358974359  22 4.42307692307692  Z " fill-rule="nonzero" fill="#000000" stroke="none" transform="matrix(1 0 0 1 1762 2155 )" />
  </g>
</svg>