<?xml version="1.0" encoding="utf-8"?>
<svg version="1.1" xmlns:xlink="http://www.w3.org/1999/xlink" width="12px" height="21px" xmlns="http://www.w3.org/2000/svg">
  <g transform="matrix(1 0 0 1 -2097 -2450 )">
    <path d="M 11.7938144329897 10.0160320641283  C 11.9312714776632 10.1563126252505  12 10.317635270541  12 10.5  C 12 10.682364729459  11.9312714776632 10.8436873747495  11.7938144329897 10.9839679358717  L 8.39448549220023 14.4531227717375  L 2.18556701030929 20.7895791583166  C 2.04810996563572 20.9298597194388  1.89003436426117 21  1.71134020618555 21  C 1.53264604810997 21  1.37457044673537 20.9298597194388  1.23711340206185 20.7895791583166  L 0.206185567010301 19.7374749498997  C 0.0687285223367827 19.5971943887775  0 19.435871743487  0 19.253507014028  C 0 19.0711422845692  0.0687285223367827 18.9098196392785  0.206185567010301 18.7695390781563  L 8.30927835051547 10.5  L 0.206185567010301 2.23046092184371  C 0.0687285223367827 2.0901803607215  0 1.9288577154308  0 1.74649298597198  C 0 1.56412825651298  0.0687285223367827 1.40280561122247  0.206185567010301 1.26252505010026  L 1.23711340206185 0.210420841683408  C 1.37457044673537 0.0701402805611997  1.53264604810997 0  1.71134020618555 0  C 1.89003436426117 0  2.04810996563572 0.0701402805611997  2.18556701030929 0.210420841683408  L 11.7938144329897 10.0160320641283  Z " fill-rule="nonzero" fill="#000000" stroke="none" fill-opacity="0.501960784313725" transform="matrix(1 0 0 1 2097 2450 )" />
  </g>
</svg>