<?xml version="1.0" encoding="utf-8"?>
<svg version="1.1" xmlns:xlink="http://www.w3.org/1999/xlink" width="37px" height="37px" xmlns="http://www.w3.org/2000/svg">
  <g transform="matrix(1 0 0 1 -2077 -456 )">
    <path d="M 36.2642045454545 14.1903409090909  C 36.7547348484849 14.6808712121212  37 15.2765151515152  37 15.9772727272727  L 37 21.0227272727273  C 37 21.7234848484849  36.7547348484849 22.3191287878788  36.2642045454545 22.8096590909091  C 35.7736742424242 23.3001893939394  35.1780303030303 23.5454545454545  34.4772727272727 23  L 23 23  L 23 34.4772727272727  C 23.5454545454545 35.1780303030303  23.3001893939394 35.7736742424242  22.8096590909091 36.2642045454545  C 22.3191287878788 36.7547348484849  21.7234848484849 37  21.0227272727273 37  L 15.9772727272727 37  C 15.2765151515152 37  14.6808712121212 36.7547348484849  14.1903409090909 36.2642045454545  C 13.6998106060606 35.7736742424242  13.4545454545455 35.1780303030303  14 34.4772727272727  L 14 23  L 2.52272727272727 23  C 1.8219696969697 23.5454545454545  1.22632575757576 23.3001893939394  0.735795454545455 22.8096590909091  C 0.245265151515151 22.3191287878788  0 21.7234848484849  0 21.0227272727273  L 0 15.9772727272727  C 0 15.2765151515152  0.245265151515151 14.6808712121212  0.735795454545455 14.1903409090909  C 1.22632575757576 13.6998106060606  1.8219696969697 13.4545454545455  2.52272727272727 14  L 14 14  L 14 2.52272727272727  C 13.4545454545455 1.8219696969697  13.6998106060606 1.22632575757576  14.1903409090909 0.735795454545455  C 14.6808712121212 0.24526515151515  15.2765151515152 0  15.9772727272727 0  L 21.0227272727273 0  C 21.7234848484849 0  22.3191287878788 0.24526515151515  22.8096590909091 0.735795454545455  C 23.3001893939394 1.22632575757576  23.5454545454545 1.8219696969697  23 2.52272727272727  L 23 14  L 34.4772727272727 14  C 35.1780303030303 13.4545454545455  35.7736742424242 13.6998106060606  36.2642045454545 14.1903409090909  Z " fill-rule="nonzero" fill="#000000" stroke="none" transform="matrix(1 0 0 1 2077 456 )" />
  </g>
</svg>