<?xml version="1.0" encoding="utf-8"?>
<svg version="1.1" xmlns:xlink="http://www.w3.org/1999/xlink" width="22px" height="29px" xmlns="http://www.w3.org/2000/svg">
  <g transform="matrix(1 0 0 1 -1096 -283 )">
    <path d="M 22 4.13771712158809  C 22 4.44954507857734  21.8655083655084 4.71939619520264  21.5965250965251 4.94727047146402  L 10.3204633204633 14.5  L 21.5965250965251 24.052729528536  C 21.8655083655084 24.2806038047974  22 24.5504549214227  22 24.8622828784119  C 22 25.1741108354012  21.8655083655084 25.4439619520265  21.5965250965251 25.6718362282878  L 18.0714285714286 28.6581885856079  C 17.8024453024453 28.8860628618693  17.4839124839125 29  17.1158301158301 29  C 16.7477477477477 29  16.4292149292149 28.8860628618693  16.1602316602317 28.6581885856079  L 0.403474903474904 15.3095533498759  C 0.134491634491635 15.0816790736146  0 14.8118279569892  0 14.5  C 0 14.1881720430108  0.134491634491635 13.9183209263854  0.403474903474904 13.6904466501241  L 16.1602316602317 0.341811414392059  C 16.4292149292149 0.113937138130685  16.7477477477477 0  17.1158301158301 0  C 17.4839124839125 0  17.8024453024453 0.113937138130685  18.0714285714286 0.341811414392059  L 21.5965250965251 3.32816377171216  C 21.8655083655084 3.55603804797353  22 3.82588916459884  22 4.13771712158809  Z " fill-rule="nonzero" fill="#000000" stroke="none" transform="matrix(1 0 0 1 1096 283 )" />
  </g>
</svg>