<?xml version="1.0" encoding="utf-8"?>
<svg version="1.1" xmlns:xlink="http://www.w3.org/1999/xlink" width="37px" height="37px" xmlns="http://www.w3.org/2000/svg">
  <g transform="matrix(1 0 0 1 -1413 -478 )">
    <path d="M 28.6653645833333 15.4166666666667  C 28.6653645833333 15.8342013888889  28.5128038194444 16.1955295138889  28.2076822916667 16.5006510416667  L 18.0423177083333 26.666015625  C 17.7371961805556 26.9711371527778  17.3758680555556 27.1236979166667  16.9583333333333 27.1236979166667  C 16.5407986111111 27.1236979166667  16.1794704861111 26.9711371527778  15.8743489583333 26.666015625  L 8.79231770833333 19.583984375  C 8.48719618055556 19.2788628472222  8.33463541666667 18.9175347222222  8.33463541666667 18.5  C 8.33463541666667 18.0824652777778  8.48719618055556 17.7211371527778  8.79231770833333 17.416015625  L 11.2493489583333 14.958984375  C 11.5544704861111 14.6538628472222  11.9157986111111 14.5013020833333  12.3333333333333 14.5013020833333  C 12.7508680555556 14.5013020833333  13.1121961805556 14.6538628472222  13.4173177083333 14.958984375  L 16.9583333333333 18.5  L 23.5826822916667 11.8756510416667  C 23.8878038194444 11.5705295138889  24.2491319444444 11.41796875  24.6666666666667 11.41796875  C 25.0842013888889 11.41796875  25.4455295138889 11.5705295138889  25.7506510416667 11.8756510416667  L 28.2076822916667 14.3326822916667  C 28.5128038194444 14.6378038194444  28.6653645833333 14.9991319444444  28.6653645833333 15.4166666666667  Z M 29.845703125 25.076171875  C 31.0180121527778 23.0687934027778  31.6041666666667 20.8767361111111  31.6041666666667 18.5  C 31.6041666666667 16.1232638888889  31.0180121527778 13.9312065972222  29.845703125 11.923828125  C 28.6733940972222 9.91644965277778  27.0835503472222 8.32660590277778  25.076171875 7.154296875  C 23.0687934027778 5.98198784722222  20.8767361111111 5.39583333333333  18.5 5.39583333333333  C 16.1232638888889 5.39583333333333  13.9312065972222 5.98198784722222  11.923828125 7.154296875  C 9.91644965277778 8.32660590277778  8.32660590277778 9.91644965277778  7.154296875 11.923828125  C 5.98198784722222 13.9312065972222  5.39583333333333 16.1232638888889  5.39583333333333 18.5  C 5.39583333333333 20.8767361111111  5.98198784722222 23.0687934027778  7.154296875 25.076171875  C 8.32660590277778 27.0835503472222  9.91644965277778 28.6733940972222  11.923828125 29.845703125  C 13.9312065972222 31.0180121527778  16.1232638888889 31.6041666666667  18.5 31.6041666666667  C 20.8767361111111 31.6041666666667  23.0687934027778 31.0180121527778  25.076171875 29.845703125  C 27.0835503472222 28.6733940972222  28.6733940972222 27.0835503472222  29.845703125 25.076171875  Z M 34.5188802083333 9.2138671875  C 36.1729600694444 12.0482855902778  37 15.1436631944444  37 18.5  C 37 21.8563368055556  36.1729600694444 24.9517144097222  34.5188802083333 27.7861328125  C 32.8648003472222 30.6205512152778  30.6205512152778 32.8648003472222  27.7861328125 34.5188802083333  C 24.9517144097222 36.1729600694445  21.8563368055556 37  18.5 37  C 15.1436631944444 37  12.0482855902778 36.1729600694445  9.2138671875 34.5188802083333  C 6.37944878472222 32.8648003472222  4.13519965277778 30.6205512152778  2.48111979166667 27.7861328125  C 0.827039930555555 24.9517144097222  0 21.8563368055556  0 18.5  C 0 15.1436631944444  0.827039930555555 12.0482855902778  2.48111979166667 9.2138671875  C 4.13519965277778 6.37944878472222  6.37944878472222 4.13519965277777  9.2138671875 2.48111979166667  C 12.0482855902778 0.827039930555552  15.1436631944444 0  18.5 0  C 21.8563368055556 0  24.9517144097222 0.827039930555552  27.7861328125 2.48111979166667  C 30.6205512152778 4.13519965277777  32.8648003472222 6.37944878472222  34.5188802083333 9.2138671875  Z " fill-rule="nonzero" fill="#000000" stroke="none" transform="matrix(1 0 0 1 1413 478 )" />
  </g>
</svg>