<?xml version="1.0" encoding="utf-8"?>
<svg version="1.1" xmlns:xlink="http://www.w3.org/1999/xlink" width="32px" height="32px" xmlns="http://www.w3.org/2000/svg">
  <g transform="matrix(1 0 0 1 -1961 -509 )">
    <path d="M 21.1770833333333 3.72916666666667  C 19.53125 3.02083333333333  17.8055555555556 2.66666666666667  16 2.66666666666667  C 14.1944444444444 2.66666666666667  12.46875 3.02083333333333  10.8229166666667 3.72916666666667  C 9.17708333333333 4.4375  7.76041666666667 5.38541666666667  6.57291666666667 6.57291666666667  C 5.38541666666667 7.76041666666667  4.4375 9.17708333333333  3.72916666666667 10.8229166666667  C 3.02083333333333 12.46875  2.66666666666667 14.1944444444444  2.66666666666667 16  C 2.66666666666667 17.8055555555556  3.02083333333333 19.53125  3.72916666666667 21.1770833333333  C 4.4375 22.8229166666667  5.38541666666667 24.2395833333333  6.57291666666667 25.4270833333333  C 7.76041666666667 26.6145833333333  9.17708333333333 27.5625  10.8229166666667 28.2708333333333  C 12.46875 28.9791666666667  14.1944444444444 29.3333333333333  16 29.3333333333333  C 17.8055555555556 29.3333333333333  19.53125 28.9791666666667  21.1770833333333 28.2708333333333  C 22.8229166666667 27.5625  24.2395833333333 26.6145833333333  25.4270833333333 25.4270833333333  C 26.6145833333333 24.2395833333333  27.5625 22.8229166666667  28.2708333333333 21.1770833333333  C 28.9791666666667 19.53125  29.3333333333333 17.8055555555556  29.3333333333333 16  C 29.3333333333333 14.1944444444444  28.9791666666667 12.46875  28.2708333333333 10.8229166666667  C 27.5625 9.17708333333333  26.6145833333333 7.76041666666667  25.4270833333333 6.57291666666667  C 24.2395833333333 5.38541666666667  22.8229166666667 4.4375  21.1770833333333 3.72916666666667  Z M 29.8541666666667 7.96875  C 31.2847222222222 10.4201388888889  32 13.0972222222222  32 16  C 32 18.9027777777778  31.2847222222222 21.5798611111111  29.8541666666667 24.03125  C 28.4236111111111 26.4826388888889  26.4826388888889 28.4236111111111  24.03125 29.8541666666667  C 21.5798611111111 31.2847222222222  18.9027777777778 32  16 32  C 13.0972222222222 32  10.4201388888889 31.2847222222222  7.96875 29.8541666666667  C 5.51736111111111 28.4236111111111  3.57638888888889 26.4826388888889  2.14583333333333 24.03125  C 0.715277777777778 21.5798611111111  0 18.9027777777778  0 16  C 0 13.0972222222222  0.715277777777778 10.4201388888889  2.14583333333333 7.96875  C 3.57638888888889 5.51736111111111  5.51736111111111 3.57638888888889  7.96875 2.14583333333333  C 10.4201388888889 0.715277777777775  13.0972222222222 0  16 0  C 18.9027777777778 0  21.5798611111111 0.715277777777775  24.03125 2.14583333333333  C 26.4826388888889 3.57638888888889  28.4236111111111 5.51736111111111  29.8541666666667 7.96875  Z " fill-rule="nonzero" fill="#000000" stroke="none" transform="matrix(1 0 0 1 1961 509 )" />
  </g>
</svg>