<?xml version="1.0" encoding="utf-8"?>
<svg version="1.1" xmlns:xlink="http://www.w3.org/1999/xlink" width="374px" height="224px" xmlns="http://www.w3.org/2000/svg">
  <g transform="matrix(1 0 0 1 -1626 -1680 )">
    <path d="M 71.6833333333333 149  C 73.7611111111111 149.333333333333  74.8 150.37037037037  75 152.444444444444  L 75 171.111111111111  C 74.8 173.185185185185  73.7611111111111 174.222222222222  71.6833333333333 174  L 52.9833333333333 174  C 50.9055555555556 174.222222222222  49.8666666666667 173.185185185185  50 171.111111111111  L 50 152.444444444444  C 49.8666666666667 150.37037037037  50.9055555555556 149.333333333333  52.9833333333333 149  L 71.6833333333333 149  Z M 96.6166666666667 100  C 98.6944444444444 99.5555555555555  99.7333333333333 100.592592592593  100 102.666666666667  L 100 121.333333333333  C 99.7333333333333 123.407407407407  98.6944444444444 124.444444444444  96.6166666666667 124  L 52.9833333333333 124  C 50.9055555555556 124.444444444444  49.8666666666667 123.407407407407  50 121.333333333333  L 50 102.666666666667  C 49.8666666666667 100.592592592593  50.9055555555556 99.5555555555555  52.9833333333333 100  L 96.6166666666667 100  Z M 71.6833333333333 50  C 73.7611111111111 49.7777777777778  74.8 50.8148148148148  75 52.8888888888889  L 75 71.5555555555555  C 74.8 73.6296296296296  73.7611111111111 74.6666666666667  71.6833333333333 75  L 52.9833333333333 75  C 50.9055555555556 74.6666666666667  49.8666666666667 73.6296296296296  50 71.5555555555555  L 50 52.8888888888889  C 49.8666666666667 50.8148148148148  50.9055555555556 49.7777777777778  52.9833333333333 50  L 71.6833333333333 50  Z M 271.15 149  C 273.227777777778 149.333333333333  274.266666666667 150.37037037037  274 152.444444444444  L 274 171.111111111111  C 274.266666666667 173.185185185185  273.227777777778 174.222222222222  271.15 174  L 102.85 174  C 100.772222222222 174.222222222222  99.7333333333333 173.185185185185  100 171.111111111111  L 100 152.444444444444  C 99.7333333333333 150.37037037037  100.772222222222 149.333333333333  102.85 149  L 271.15 149  Z M 146.483333333333 100  C 148.561111111111 99.5555555555555  149.6 100.592592592593  150 102.666666666667  L 150 121.333333333333  C 149.6 123.407407407407  148.561111111111 124.444444444444  146.483333333333 124  L 127.783333333333 124  C 125.705555555556 124.444444444444  124.666666666667 123.407407407407  125 121.333333333333  L 125 102.666666666667  C 124.666666666667 100.592592592593  125.705555555556 99.5555555555555  127.783333333333 100  L 146.483333333333 100  Z M 121.55 50  C 123.627777777778 49.7777777777778  124.666666666667 50.8148148148148  125 52.8888888888889  L 125 71.5555555555555  C 124.666666666667 73.6296296296296  123.627777777778 74.6666666666667  121.55 75  L 102.85 75  C 100.772222222222 74.6666666666667  99.7333333333333 73.6296296296296  100 71.5555555555555  L 100 52.8888888888889  C 99.7333333333333 50.8148148148148  100.772222222222 49.7777777777778  102.85 50  L 121.55 50  Z M 196.35 100  C 198.427777777778 99.5555555555555  199.466666666667 100.592592592593  199 102.666666666667  L 199 121.333333333333  C 199.466666666667 123.407407407407  198.427777777778 124.444444444444  196.35 124  L 177.65 124  C 175.572222222222 124.444444444444  174.533333333333 123.407407407407  175 121.333333333333  L 175 102.666666666667  C 174.533333333333 100.592592592593  175.572222222222 99.5555555555555  177.65 100  L 196.35 100  Z M 171.416666666667 50  C 173.494444444444 49.7777777777778  174.533333333333 50.8148148148148  175 52.8888888888889  L 175 71.5555555555555  C 174.533333333333 73.6296296296296  173.494444444444 74.6666666666667  171.416666666667 75  L 152.716666666667 75  C 150.638888888889 74.6666666666667  149.6 73.6296296296296  150 71.5555555555555  L 150 52.8888888888889  C 149.6 50.8148148148148  150.638888888889 49.7777777777778  152.716666666667 50  L 171.416666666667 50  Z M 246.216666666667 100  C 248.294444444444 99.5555555555555  249.333333333333 100.592592592593  249 102.666666666667  L 249 121.333333333333  C 249.333333333333 123.407407407407  248.294444444444 124.444444444444  246.216666666667 124  L 227.516666666667 124  C 225.438888888889 124.444444444444  224.4 123.407407407407  224 121.333333333333  L 224 102.666666666667  C 224.4 100.592592592593  225.438888888889 99.5555555555555  227.516666666667 100  L 246.216666666667 100  Z M 321.016666666667 149  C 323.094444444444 149.333333333333  324.133333333333 150.37037037037  324 152.444444444444  L 324 171.111111111111  C 324.133333333333 173.185185185185  323.094444444444 174.222222222222  321.016666666667 174  L 302.316666666667 174  C 300.238888888889 174.222222222222  299.2 173.185185185185  299 171.111111111111  L 299 152.444444444444  C 299.2 150.37037037037  300.238888888889 149.333333333333  302.316666666667 149  L 321.016666666667 149  Z M 221.283333333333 50  C 223.361111111111 49.7777777777778  224.4 50.8148148148148  224 52.8888888888889  L 224 71.5555555555555  C 224.4 73.6296296296296  223.361111111111 74.6666666666667  221.283333333333 75  L 202.583333333333 75  C 200.505555555556 74.6666666666667  199.466666666667 73.6296296296296  199 71.5555555555555  L 199 52.8888888888889  C 199.466666666667 50.8148148148148  200.505555555556 49.7777777777778  202.583333333333 50  L 221.283333333333 50  Z M 271.15 50  C 273.227777777778 49.7777777777778  274.266666666667 50.8148148148148  274 52.8888888888889  L 274 71.5555555555555  C 274.266666666667 73.6296296296296  273.227777777778 74.6666666666667  271.15 75  L 252.45 75  C 250.372222222222 74.6666666666667  249.333333333333 73.6296296296296  249 71.5555555555555  L 249 52.8888888888889  C 249.333333333333 50.8148148148148  250.372222222222 49.7777777777778  252.45 50  L 271.15 50  Z M 321.016666666667 50  C 323.094444444444 49.7777777777778  324.133333333333 50.8148148148148  324 52.8888888888889  L 324 121.333333333333  C 324.133333333333 123.407407407407  323.094444444444 124.444444444444  321.016666666667 124  L 277.383333333333 124  C 275.305555555556 124.444444444444  274.266666666667 123.407407407407  274 121.333333333333  L 274 102.666666666667  C 274.266666666667 100.592592592593  275.305555555556 99.5555555555555  277.383333333333 100  L 299 100  L 299 52.8888888888889  C 299.2 50.8148148148148  300.238888888889 49.7777777777778  302.316666666667 50  L 321.016666666667 50  Z M 25 199  L 349 199  L 349 25  L 25 25  L 25 199  Z M 366.6953125 7.29166666666668  C 371.565104166667 12.1527777777778  374 18.0185185185185  374 24.8888888888889  L 374 199.111111111111  C 374 205.981481481481  371.565104166667 211.847222222222  366.6953125 216.708333333333  C 361.825520833333 221.569444444444  355.949305555556 224  349.066666666667 224  L 24.9333333333333 224  C 18.0506944444444 224  12.1744791666667 221.569444444444  7.3046875 216.708333333333  C 2.43489583333333 211.847222222222  0 205.981481481481  0 199.111111111111  L 0 24.8888888888889  C 0 18.0185185185185  2.43489583333333 12.1527777777778  7.3046875 7.29166666666668  C 12.1744791666667 2.43055555555555  18.0506944444444 0  24.9333333333333 0  L 349.066666666667 0  C 355.949305555556 0  361.825520833333 2.43055555555555  366.6953125 7.29166666666668  Z " fill-rule="nonzero" fill="#000000" stroke="none" transform="matrix(1 0 0 1 1626 1680 )" />
  </g>
</svg>